<?xml version="1.0" encoding="utf-8"?>
<!-- Generator: Adobe Illustrator 20.1.0, SVG Export Plug-In . SVG Version: 6.00 Build 0)  -->
<!DOCTYPE svg PUBLIC "-//W3C//DTD SVG 1.1//EN" "http://www.w3.org/Graphics/SVG/1.1/DTD/svg11.dtd">
<svg version="1.1" id="Layer_1" xmlns="http://www.w3.org/2000/svg" xmlns:xlink="http://www.w3.org/1999/xlink" x="0px" y="0px"
	 viewBox="0 0 40 40" style="enable-background:new 0 0 40 40;" xml:space="preserve">
<style type="text/css">
	.st0{fill:#E6E6E6;}
	.st1{fill:#404040;}
	.st2{fill:#646464;}
</style>
<g>
	<g>
		<rect x="0.5" y="0.5" class="st0" width="39" height="39"/>
		<path class="st1" d="M39,1v38H1V1H39 M40,0H0v40h40V0L40,0z"/>
	</g>
	<g>
		<path class="st2" d="M11.9,13.1c0.2-0.1,0.5-0.1,0.7-0.1c0.3,0,0.5,0,0.8,0c0.3,0,0.6,0,0.8,0.1c0.3,0.1,0.5,0.2,0.8,0.3
			c0.2,0.1,0.4,0.3,0.6,0.6s0.2,0.6,0.2,1c0,0.4-0.1,0.7-0.2,1s-0.3,0.5-0.5,0.6s-0.5,0.3-0.8,0.4s-0.6,0.1-0.9,0.1c0,0-0.1,0-0.1,0
			s-0.1,0-0.2,0c-0.1,0-0.1,0-0.2,0c-0.1,0-0.1,0-0.2,0v2.4h-0.7V13.1z M13.4,13.6c-0.2,0-0.3,0-0.5,0s-0.3,0-0.3,0v2.6
			c0,0,0.1,0,0.1,0c0.1,0,0.1,0,0.2,0c0.1,0,0.1,0,0.2,0s0.1,0,0.1,0c0.2,0,0.4,0,0.6-0.1s0.4-0.1,0.5-0.2s0.3-0.2,0.4-0.4
			c0.1-0.2,0.1-0.4,0.1-0.7c0-0.2,0-0.5-0.1-0.6c-0.1-0.2-0.2-0.3-0.4-0.4c-0.2-0.1-0.3-0.2-0.5-0.2C13.8,13.6,13.6,13.6,13.4,13.6z
			"/>
		<path class="st2" d="M21.4,16.4h-2.8v2.9h-0.7V13h0.7v2.7h2.8V13h0.7v6.3h-0.7V16.4z"/>
		<path class="st2" d="M24.5,13.1C24.7,13,25,13,25.2,13c0.3,0,0.5,0,0.8,0c0.3,0,0.6,0,0.8,0.1c0.3,0.1,0.5,0.2,0.8,0.3
			c0.2,0.1,0.4,0.3,0.6,0.6s0.2,0.6,0.2,1c0,0.4-0.1,0.7-0.2,1s-0.3,0.5-0.5,0.6s-0.5,0.3-0.8,0.4s-0.6,0.1-0.9,0.1c0,0-0.1,0-0.1,0
			s-0.1,0-0.2,0s-0.1,0-0.2,0c-0.1,0-0.1,0-0.2,0v2.4h-0.7V13.1z M26,13.6c-0.2,0-0.3,0-0.5,0s-0.3,0-0.3,0v2.6c0,0,0.1,0,0.1,0
			s0.1,0,0.2,0c0.1,0,0.1,0,0.2,0s0.1,0,0.1,0c0.2,0,0.4,0,0.6-0.1c0.2,0,0.4-0.1,0.5-0.2s0.3-0.2,0.4-0.4c0.1-0.2,0.1-0.4,0.1-0.7
			c0-0.2,0-0.5-0.1-0.6s-0.2-0.3-0.4-0.4c-0.2-0.1-0.3-0.2-0.5-0.2C26.4,13.6,26.2,13.6,26,13.6z"/>
		<path class="st2" d="M4.2,25.8h0.7V23H4.3v0.7H3.7v-1.4h3.3v1.4H6.3V23H5.7v2.9h0.7v0.7H4.2V25.8z"/>
		<path class="st2" d="M8.1,22.3h2.8V23H8.9v1h1.8v0.7H8.9v1h2v0.7H8.1V22.3z"/>
		<path class="st2" d="M14.4,24.3l0-0.7h0l-0.7,1.1h-0.1l-0.7-1.1h0l0,0.6v2.3h-0.8v-4.2H13l0.7,1.2h0l0.7-1.2h0.8v4.2h-0.8V24.3z"
			/>
		<path class="st2" d="M16.5,22.3c0.2,0,0.4-0.1,0.6-0.1c0.2,0,0.4,0,0.6,0c0.2,0,0.4,0,0.6,0.1s0.4,0.1,0.6,0.2
			c0.2,0.1,0.3,0.2,0.4,0.4c0.1,0.2,0.2,0.4,0.2,0.7c0,0.3,0,0.5-0.1,0.7c-0.1,0.2-0.2,0.3-0.4,0.5s-0.3,0.2-0.5,0.3
			s-0.4,0.1-0.6,0.1c0,0-0.1,0-0.1,0c0,0-0.1,0-0.1,0s-0.1,0-0.1,0s-0.1,0-0.1,0v1.4h-0.8V22.3z M17.8,22.9c-0.1,0-0.2,0-0.2,0
			c-0.1,0-0.1,0-0.2,0v1.4c0,0,0,0,0.1,0c0,0,0.1,0,0.1,0s0.1,0,0.1,0c0,0,0.1,0,0.1,0c0.1,0,0.2,0,0.3,0c0.1,0,0.2-0.1,0.3-0.1
			c0.1-0.1,0.2-0.1,0.2-0.2c0.1-0.1,0.1-0.2,0.1-0.4c0-0.1,0-0.2-0.1-0.3c0-0.1-0.1-0.2-0.2-0.2C18.3,23,18.2,23,18.1,23
			C18,23,17.9,22.9,17.8,22.9z"/>
		<path class="st2" d="M22.8,24.8h0.7v1.7h-2.8v-4.2h0.8v3.5h1.2V24.8z"/>
		<path class="st2" d="M26.9,25.6h-1.3l-0.3,0.9h-0.8l1.4-4.2h0.8l1.3,4.2h-0.9L26.9,25.6z M25.8,24.9h0.9l-0.4-1.4h-0.1L25.8,24.9z
			"/>
		<path class="st2" d="M29.4,25.8h0.7V23h-0.6v0.7h-0.7v-1.4h3.3v1.4h-0.7V23h-0.6v2.9h0.7v0.7h-2.2V25.8z"/>
		<path class="st2" d="M33.3,22.3h2.8V23h-1.9v1h1.8v0.7h-1.8v1h2v0.7h-2.8V22.3z"/>
	</g>
</g>
</svg>
