<?xml version="1.0" encoding="utf-8"?>
<!-- Generator: Adobe Illustrator 20.1.0, SVG Export Plug-In . SVG Version: 6.00 Build 0)  -->
<!DOCTYPE svg PUBLIC "-//W3C//DTD SVG 1.1//EN" "http://www.w3.org/Graphics/SVG/1.1/DTD/svg11.dtd">
<svg version="1.1" id="Layer_1" xmlns="http://www.w3.org/2000/svg" xmlns:xlink="http://www.w3.org/1999/xlink" x="0px" y="0px"
	 viewBox="0 0 40 40" style="enable-background:new 0 0 40 40;" xml:space="preserve">
<style type="text/css">
	.st0{fill:#E6E6E6;}
	.st1{fill:#404040;}
	.st2{fill:#646464;}
	.st3{fill:#7F7F7F;}
</style>
<g>
	<g>
		<rect x="0.5" y="0.5" class="st0" width="39" height="39"/>
		<path class="st1" d="M39,1v38H1V1H39 M40,0H0v40h40V0L40,0z"/>
	</g>
	<g>
		<path class="st2" d="M4.2,8.2c0.1,0.1,0.3,0.1,0.5,0.2s0.4,0.1,0.5,0.1c0.2,0,0.3,0,0.4,0S5.9,8.3,6,8.3C6.1,8.2,6.2,8.1,6.3,8
			c0.1-0.1,0.1-0.2,0.1-0.4c0-0.2-0.1-0.3-0.2-0.5C6,7.1,5.9,7,5.7,6.9C5.5,6.8,5.3,6.7,5.1,6.6C4.8,6.5,4.6,6.4,4.4,6.3
			S4.1,6,4,5.8S3.8,5.4,3.8,5.2c0-0.2,0-0.4,0.1-0.5s0.2-0.3,0.3-0.4C4.4,4.1,4.5,4.1,4.7,4s0.4-0.1,0.7-0.1c0.3,0,0.5,0,0.8,0.1
			c0.2,0,0.4,0.1,0.5,0.2l0,0v0h0l0,0v1.1H6.2V4.5c-0.1,0-0.2-0.1-0.4-0.1c-0.1,0-0.3,0-0.4,0c-0.2,0-0.3,0-0.4,0.1
			c-0.1,0-0.2,0.1-0.3,0.2C4.5,4.7,4.5,4.8,4.4,4.9c0,0.1-0.1,0.2-0.1,0.3c0,0.2,0.1,0.3,0.2,0.5C4.7,5.7,4.8,5.8,5,5.9
			C5.2,6,5.4,6.1,5.7,6.2c0.2,0.1,0.4,0.2,0.6,0.3C6.5,6.6,6.6,6.8,6.8,7c0.1,0.2,0.2,0.4,0.2,0.6c0,0.2,0,0.4-0.1,0.6
			C6.8,8.3,6.6,8.5,6.5,8.6C6.4,8.7,6.2,8.8,6,8.9S5.5,9,5.3,9c-0.2,0-0.3,0-0.5,0S4.5,8.9,4.3,8.8C4.2,8.8,4.1,8.8,4,8.7
			c-0.1,0-0.2-0.1-0.2-0.1l0,0V7.4h0.5V8.2z"/>
		<path class="st2" d="M8.8,4h2.9v0.5H9.4v1.6h2.1v0.5H9.4v1.7h2.3v0.5H8.8V4z"/>
		<path class="st2" d="M13.7,4C13.9,4,14.1,4,14.3,4s0.4,0,0.6,0c0.2,0,0.4,0,0.6,0.1c0.2,0,0.4,0.1,0.5,0.2
			c0.1,0.1,0.3,0.2,0.4,0.4c0.1,0.2,0.1,0.4,0.1,0.6c0,0.2,0,0.4-0.1,0.5c-0.1,0.1-0.1,0.3-0.2,0.4c-0.1,0.1-0.2,0.2-0.3,0.3
			s-0.2,0.1-0.3,0.1L17,8.9h-0.7l-1.2-2.2h-0.9v2.2h-0.6V4z M15,4.4c-0.1,0-0.1,0-0.2,0s-0.1,0-0.2,0c-0.1,0-0.1,0-0.2,0
			c-0.1,0-0.1,0-0.1,0v1.8h0.5c0.3,0,0.6-0.1,0.8-0.2c0.2-0.2,0.3-0.4,0.3-0.7c0-0.3-0.1-0.5-0.3-0.6C15.5,4.5,15.3,4.4,15,4.4z"/>
		<path class="st2" d="M20,8.2L20,8.2L21.4,4H22l-1.6,4.9h-0.7L18,4h0.6L20,8.2z"/>
		<path class="st2" d="M23.2,4h3.4v0.5h-1.4v3.9h1.4v0.5h-3.4V8.4h1.4V4.5h-1.4V4z"/>
		<path class="st2" d="M30.9,4.5c-0.1,0-0.2-0.1-0.3-0.1c-0.1,0-0.2,0-0.3,0c-0.2,0-0.4,0-0.6,0.1c-0.2,0.1-0.3,0.2-0.5,0.3
			C29.1,5,29,5.2,28.9,5.5c-0.1,0.3-0.1,0.6-0.1,0.9c0,0.3,0,0.6,0.1,0.9C29,7.6,29.1,7.8,29.2,8c0.1,0.2,0.3,0.3,0.5,0.4
			s0.4,0.1,0.6,0.1c0.1,0,0.2,0,0.3,0c0.1,0,0.2,0,0.3-0.1V7.6h0.5v0.9l0,0c-0.1,0.1-0.3,0.2-0.5,0.3S30.5,9,30.2,9
			c-0.3,0-0.6,0-0.8-0.2s-0.5-0.3-0.6-0.5c-0.2-0.2-0.3-0.5-0.4-0.8c-0.1-0.3-0.2-0.7-0.2-1.1c0-0.5,0.1-0.8,0.2-1.2
			c0.1-0.3,0.3-0.6,0.5-0.8s0.4-0.4,0.7-0.4C29.7,4,30,3.9,30.3,3.9c0.2,0,0.3,0,0.4,0s0.2,0,0.3,0c0.1,0,0.2,0,0.2,0.1
			c0.1,0,0.1,0.1,0.2,0.1h0v1.1h-0.5V4.5z"/>
		<path class="st2" d="M33.3,4h2.9v0.5h-2.3v1.6H36v0.5h-2.1v1.7h2.3v0.5h-2.9V4z"/>
	</g>
	<g>
		<rect x="4" y="12" class="st3" width="8" height="10"/>
		<rect x="28" y="12" class="st3" width="8" height="10"/>
		<rect x="16" y="12" class="st3" width="8" height="10"/>
	</g>
	<g>
		<rect x="4" y="26" class="st3" width="8" height="10"/>
		<rect x="28" y="26" class="st3" width="8" height="10"/>
		<rect x="16" y="26" class="st3" width="8" height="10"/>
	</g>
</g>
</svg>
