<?xml version="1.0" encoding="utf-8"?>
<!-- Generator: Adobe Illustrator 20.1.0, SVG Export Plug-In . SVG Version: 6.00 Build 0)  -->
<!DOCTYPE svg PUBLIC "-//W3C//DTD SVG 1.1//EN" "http://www.w3.org/Graphics/SVG/1.1/DTD/svg11.dtd">
<svg version="1.1" id="Layer_1" xmlns="http://www.w3.org/2000/svg" xmlns:xlink="http://www.w3.org/1999/xlink" x="0px" y="0px"
	 viewBox="0 0 40 40" style="enable-background:new 0 0 40 40;" xml:space="preserve">
<style type="text/css">
	.st0{fill:#E6E6E6;}
	.st1{fill:#404040;}
	.st2{fill:#646464;}
</style>
<g>
	<rect x="0.5" y="0.5" class="st0" width="39" height="39"/>
	<path class="st1" d="M39,1v38H1V1H39 M40,0H0v40h40V0L40,0z"/>
</g>
<g>
	<path class="st2" d="M5.4,11.4h3.7v0.7h-3v2.1h2.7v0.7H6.1v2.2h3v0.7H5.4V11.4z"/>
	<path class="st2" d="M14.9,13.5l0.1-0.9h0l-0.4,0.8L13.5,15h-0.2l-1-1.5l-0.4-0.8h0l0.1,0.8v4.2h-0.7v-6.3H12l1.5,2.4h0l1.4-2.4
		h0.7v6.3h-0.7V13.5z"/>
	<path class="st2" d="M21.7,12.9c0,0.1,0,0.3-0.1,0.5c0,0.2-0.1,0.3-0.2,0.4c-0.1,0.1-0.2,0.3-0.4,0.4s-0.3,0.2-0.5,0.2v0
		c0.2,0,0.4,0.1,0.5,0.2c0.2,0.1,0.3,0.2,0.4,0.3c0.1,0.1,0.2,0.3,0.3,0.5c0.1,0.2,0.1,0.4,0.1,0.6c0,0.3-0.1,0.6-0.2,0.8
		c-0.1,0.2-0.3,0.4-0.5,0.6c-0.2,0.2-0.5,0.3-0.7,0.3c-0.3,0.1-0.6,0.1-0.9,0.1c-0.1,0-0.2,0-0.4,0c-0.1,0-0.3,0-0.4,0
		c-0.1,0-0.3,0-0.4,0c-0.1,0-0.3,0-0.4-0.1v-6.2c0.2,0,0.5-0.1,0.8-0.1c0.3,0,0.6,0,1,0c0.2,0,0.5,0,0.7,0.1c0.2,0,0.5,0.1,0.7,0.2
		c0.2,0.1,0.4,0.3,0.5,0.5C21.7,12.3,21.7,12.6,21.7,12.9z M19.2,14.2c0.1,0,0.2,0,0.4,0c0.1,0,0.3,0,0.4,0c0.1,0,0.3-0.1,0.4-0.2
		c0.1-0.1,0.2-0.2,0.3-0.2c0.1-0.1,0.2-0.2,0.2-0.3s0.1-0.3,0.1-0.4c0-0.2,0-0.4-0.1-0.5c-0.1-0.1-0.2-0.2-0.3-0.3
		c-0.1-0.1-0.3-0.1-0.4-0.2c-0.2,0-0.3,0-0.5,0c-0.2,0-0.4,0-0.5,0c-0.2,0-0.3,0-0.4,0v2.1H19.2z M19.6,17.2c0.2,0,0.4,0,0.6-0.1
		s0.3-0.1,0.5-0.2c0.1-0.1,0.2-0.2,0.3-0.4s0.1-0.3,0.1-0.5c0-0.2,0-0.4-0.1-0.6c-0.1-0.1-0.2-0.3-0.4-0.4c-0.2-0.1-0.3-0.1-0.5-0.2
		c-0.2,0-0.4,0-0.6,0h-0.8v2.3c0,0,0.1,0,0.2,0c0.1,0,0.2,0,0.3,0c0.1,0,0.2,0,0.3,0S19.6,17.2,19.6,17.2z"/>
	<path class="st2" d="M24.3,11.4H28v0.7h-3v2.1h2.7v0.7H25v2.2h3v0.7h-3.7V11.4z"/>
	<path class="st2" d="M30.4,11.4c0.2,0,0.5,0,0.7-0.1c0.2,0,0.5,0,0.6,0c0.5,0,1,0.1,1.4,0.2c0.4,0.2,0.7,0.4,0.9,0.7
		c0.2,0.3,0.4,0.6,0.5,1c0.1,0.4,0.1,0.8,0.1,1.3c0,0.4,0,0.8-0.1,1.2s-0.2,0.7-0.5,1c-0.2,0.3-0.5,0.5-0.9,0.7
		c-0.4,0.2-0.8,0.3-1.4,0.3c-0.1,0-0.2,0-0.3,0c-0.1,0-0.3,0-0.4,0c-0.1,0-0.3,0-0.4,0c-0.1,0-0.2,0-0.3,0V11.4z M31.7,12
		c-0.1,0-0.2,0-0.3,0c-0.1,0-0.2,0-0.3,0v5c0,0,0.1,0,0.1,0c0.1,0,0.1,0,0.2,0c0.1,0,0.1,0,0.2,0c0.1,0,0.1,0,0.1,0
		c0.4,0,0.8-0.1,1.1-0.2c0.3-0.1,0.5-0.3,0.6-0.6c0.1-0.2,0.3-0.5,0.3-0.8c0.1-0.3,0.1-0.6,0.1-1c0-0.3,0-0.6-0.1-0.9
		c0-0.3-0.1-0.6-0.3-0.8c-0.1-0.2-0.4-0.4-0.6-0.6C32.5,12.1,32.2,12,31.7,12z"/>
	<path class="st2" d="M11.7,22.9c-0.1,0-0.2-0.1-0.3-0.1c-0.1,0-0.3,0-0.4,0c-0.2,0-0.5,0-0.7,0.1C10,23,9.8,23.2,9.6,23.4
		s-0.3,0.5-0.4,0.8S9,24.9,9,25.4c0,0.4,0,0.8,0.1,1.1c0.1,0.3,0.2,0.6,0.4,0.8c0.2,0.2,0.4,0.4,0.6,0.5c0.2,0.1,0.5,0.2,0.8,0.2
		c0.2,0,0.3,0,0.4,0s0.3-0.1,0.4-0.1v-0.9h0.7v1.2l0,0c-0.2,0.1-0.4,0.3-0.7,0.3s-0.6,0.1-1,0.1c-0.4,0-0.7-0.1-1-0.2
		c-0.3-0.1-0.6-0.3-0.8-0.6c-0.2-0.3-0.4-0.6-0.5-1s-0.2-0.9-0.2-1.5c0-0.6,0.1-1.1,0.2-1.5c0.1-0.4,0.3-0.7,0.6-1
		c0.2-0.3,0.5-0.5,0.9-0.6c0.3-0.1,0.7-0.2,1-0.2c0.2,0,0.4,0,0.5,0c0.1,0,0.3,0,0.4,0.1c0.1,0,0.2,0.1,0.3,0.1s0.2,0.1,0.3,0.1h0
		v1.4h-0.7V22.9z"/>
	<path class="st2" d="M14.3,25.4c0-1,0.2-1.8,0.6-2.4c0.4-0.6,0.9-0.8,1.7-0.8c0.4,0,0.8,0.1,1.1,0.2s0.5,0.4,0.7,0.7s0.3,0.6,0.4,1
		c0.1,0.4,0.1,0.8,0.1,1.3c0,1-0.2,1.8-0.6,2.4c-0.4,0.6-0.9,0.8-1.7,0.8c-0.4,0-0.8-0.1-1.1-0.2c-0.3-0.2-0.5-0.4-0.7-0.7
		c-0.2-0.3-0.3-0.6-0.4-1C14.4,26.3,14.3,25.9,14.3,25.4z M15.1,25.4c0,0.3,0,0.7,0.1,1c0,0.3,0.1,0.6,0.2,0.8
		c0.1,0.2,0.3,0.4,0.5,0.6s0.4,0.2,0.7,0.2c0.5,0,0.9-0.2,1.1-0.6c0.2-0.4,0.4-1.1,0.4-2c0-0.3,0-0.7-0.1-1c0-0.3-0.1-0.6-0.2-0.8
		c-0.1-0.2-0.3-0.4-0.5-0.6c-0.2-0.1-0.4-0.2-0.7-0.2c-0.5,0-0.9,0.2-1.1,0.6C15.2,23.8,15.1,24.5,15.1,25.4z"/>
	<path class="st2" d="M20.9,22.2c0.2,0,0.5,0,0.7-0.1s0.5,0,0.6,0c0.5,0,1,0.1,1.4,0.2s0.7,0.4,0.9,0.7c0.2,0.3,0.4,0.6,0.5,1
		c0.1,0.4,0.1,0.8,0.1,1.3c0,0.4,0,0.8-0.1,1.2c-0.1,0.4-0.2,0.7-0.5,1c-0.2,0.3-0.5,0.5-0.9,0.7c-0.4,0.2-0.8,0.3-1.4,0.3
		c-0.1,0-0.2,0-0.3,0c-0.1,0-0.3,0-0.4,0c-0.1,0-0.3,0-0.4,0s-0.2,0-0.3,0V22.2z M22.3,22.8c-0.1,0-0.2,0-0.3,0c-0.1,0-0.2,0-0.3,0
		v5c0,0,0.1,0,0.1,0c0.1,0,0.1,0,0.2,0s0.1,0,0.2,0c0.1,0,0.1,0,0.1,0c0.4,0,0.8-0.1,1.1-0.2c0.3-0.1,0.5-0.3,0.6-0.6
		c0.1-0.2,0.3-0.5,0.3-0.8c0.1-0.3,0.1-0.6,0.1-1c0-0.3,0-0.6-0.1-0.9c0-0.3-0.1-0.6-0.3-0.8s-0.4-0.4-0.6-0.6
		C23.1,22.9,22.7,22.8,22.3,22.8z"/>
	<path class="st2" d="M27.5,22.2h3.7v0.7h-3V25h2.7v0.7h-2.7v2.2h3v0.7h-3.7V22.2z"/>
</g>
</svg>
