<?xml version="1.0" encoding="utf-8"?>
<!-- Generator: Adobe Illustrator 20.1.0, SVG Export Plug-In . SVG Version: 6.00 Build 0)  -->
<!DOCTYPE svg PUBLIC "-//W3C//DTD SVG 1.1//EN" "http://www.w3.org/Graphics/SVG/1.1/DTD/svg11.dtd">
<svg version="1.1" id="Layer_1" xmlns="http://www.w3.org/2000/svg" xmlns:xlink="http://www.w3.org/1999/xlink" x="0px" y="0px"
	 viewBox="0 0 40 40" style="enable-background:new 0 0 40 40;" xml:space="preserve">
<style type="text/css">
	.st0{fill:#E6E6E6;}
	.st1{fill:#404040;}
	.st2{fill:#7F7F7F;}
</style>
<g>
	<rect x="0.5" y="0.5" class="st0" width="39" height="39"/>
	<path class="st1" d="M39,1v38H1V1H39 M40,0H0v40h40V0L40,0z"/>
</g>
<g id="PoWYFX.tif">
	<g>
		<path class="st2" d="M11.7,10.7c0-0.5,0-0.9,0-1.4c0-0.9,0.4-1.6,1.1-2c0.3-0.2,0.6-0.3,0.9-0.3c0.6,0,1.2-0.1,1.7,0
			c1.1,0.2,1.8,1.2,1.8,2.3c0,0.5,0,0.9,0,1.4c1.8,0,3.7,0,5.5,0c0-0.1,0-0.1,0-0.2c0-0.5,0-1,0-1.5c0.1-1.2,1-2,2.2-2
			c0.5,0,1,0,1.5,0.1c1.1,0.2,1.8,1.2,1.8,2.3c0,0.5,0,0.9,0,1.4c0.1,0,0.1,0,0.2,0c0.5,0,1.1,0,1.6,0c1.1,0,1.9,0.8,1.9,1.9
			c0,2.8,0,5.5,0,8.3c0,3.4,0,6.8,0,10.1c0,1.2-0.8,2-2,2c-6.7,0-13.4,0-20.1,0c-0.9,0-1.6-0.6-1.9-1.4C8,31.4,8,31.3,8,31.1
			c0-6.2,0-12.3,0-18.5c0-1.1,0.8-1.9,1.9-1.9C10.5,10.7,11.1,10.7,11.7,10.7z M19.5,23.7c0-0.7,0-1.4,0-2.2c0-0.1,0-0.2-0.2-0.2
			c-1.4,0-2.9,0-4.3,0c-0.1,0-0.2,0-0.2,0.2c0,1.4,0,2.9,0,4.3c0,0.1,0,0.2,0.2,0.2c1.4,0,2.9,0,4.3,0c0.1,0,0.2,0,0.2-0.2
			C19.5,25.2,19.5,24.4,19.5,23.7z M25.1,23.7c0-0.7,0-1.4,0-2.2c0-0.1,0-0.2-0.2-0.2c-1.4,0-2.8,0-4.3,0c-0.1,0-0.2,0-0.2,0.2
			c0,1.4,0,2.9,0,4.3c0,0.1,0,0.2,0.2,0.2c1.4,0,2.8,0,4.3,0c0.1,0,0.2,0,0.2-0.2C25.1,25.1,25.1,24.4,25.1,23.7z M20.5,31.1
			c1.5,0,3.1,0,4.6,0c0-0.1,0-0.1,0-0.2c0-1.3,0-2.5,0-3.8c0-0.2,0-0.2-0.2-0.2c-1.4,0-2.8,0-4.2,0c-0.2,0-0.2,0-0.2,0.2
			c0,1.3,0,2.5,0,3.8C20.5,31,20.5,31.1,20.5,31.1z M19.5,31.1c0-0.1,0-0.1,0-0.1c0-1.3,0-2.6,0-3.9c0-0.2-0.1-0.2-0.2-0.2
			c-1.4,0-2.8,0-4.2,0c-0.2,0-0.2,0-0.2,0.2c0,1.3,0,2.5,0,3.8c0,0.1,0,0.1,0,0.2C16.5,31.1,18,31.1,19.5,31.1z M14.9,16.3
			c0,0.1,0,0.1,0,0.1c0,1.3,0,2.6,0,3.9c0,0.2,0.1,0.2,0.2,0.2c1.4,0,2.8,0,4.2,0c0.2,0,0.2,0,0.2-0.2c0-1.3,0-2.5,0-3.8
			c0-0.1,0-0.1,0-0.2C18,16.3,16.5,16.3,14.9,16.3z M20.5,16.3c0,0.1,0,0.1,0,0.2c0,1.3,0,2.5,0,3.8c0,0.2,0,0.2,0.2,0.2
			c1.4,0,2.8,0,4.2,0c0.2,0,0.2,0,0.2-0.2c0-1.3,0-2.5,0-3.8c0-0.1,0-0.1,0-0.2C23.5,16.3,22,16.3,20.5,16.3z M9.9,21.4
			c0,1.6,0,3.1,0,4.6c0.1,0,0.1,0,0.2,0c1.2,0,2.5,0,3.7,0c0.2,0,0.2,0,0.2-0.2c0-1.4,0-2.8,0-4.2c0-0.2,0-0.2-0.2-0.2
			c-1.2,0-2.5,0-3.7,0C10,21.4,9.9,21.4,9.9,21.4z M30.2,21.4c-0.1,0-0.1,0-0.1,0c-1.3,0-2.6,0-3.9,0c-0.1,0-0.2,0.1-0.2,0.2
			c0,1.4,0,2.9,0,4.3c0,0.2,0,0.2,0.2,0.2c1.3,0,2.5,0,3.8,0c0.1,0,0.1,0,0.2,0C30.2,24.5,30.2,22.9,30.2,21.4z M26,31.1
			c1.4,0,2.8,0,4.2,0c0-1.4,0-2.8,0-4.2c-0.1,0-0.1,0-0.2,0c-1.2,0-2.5,0-3.7,0C26,27,26,27,26,27.2c0,1.3,0,2.5,0,3.8
			C26,31,26,31.1,26,31.1z M14,31.1c0-0.1,0-0.1,0-0.2c0-1.3,0-2.5,0-3.8c0-0.2,0-0.2-0.2-0.2c-1.2,0-2.5,0-3.7,0
			c-0.1,0-0.1,0-0.2,0c0,1.4,0,2.8,0,4.2C11.2,31.1,12.6,31.1,14,31.1z M26,16.3c0,0.1,0,0.1,0,0.2c0,1.3,0,2.5,0,3.8
			c0,0.2,0,0.2,0.2,0.2c1.2,0,2.5,0,3.7,0c0.1,0,0.1,0,0.2,0c0-1.4,0-2.8,0-4.2C28.8,16.3,27.4,16.3,26,16.3z M9.8,20.5
			c0.1,0,0.2,0,0.2,0c1.2,0,2.5,0,3.7,0c0.2,0,0.2,0,0.2-0.2c0-1.3,0-2.5,0-3.8c0-0.1,0-0.1,0-0.2c-1.4,0-2.8,0-4.1,0
			C9.8,17.7,9.8,19.1,9.8,20.5z M26.5,11.4c0-0.7,0-1.3,0-2c0-0.3-0.2-0.5-0.5-0.5c-0.3,0-0.5,0-0.8,0c-0.4,0-0.5,0.2-0.5,0.5
			c0,1.3,0,2.7,0,4c0,0.4,0.2,0.5,0.5,0.5c0.3,0,0.5,0,0.8,0c0.4,0,0.5-0.2,0.5-0.5C26.5,12.8,26.5,12.1,26.5,11.4z M15.4,11.4
			c0-0.7,0-1.4,0-2.1c0-0.3-0.2-0.5-0.5-0.5c-0.3,0-0.6,0-0.8,0c-0.3,0-0.5,0.2-0.5,0.5c0,1.4,0,2.7,0,4.1c0,0.3,0.2,0.5,0.5,0.5
			c0.3,0,0.5,0,0.8,0c0.4,0,0.5-0.2,0.5-0.6C15.4,12.8,15.4,12.1,15.4,11.4z"/>
	</g>
</g>
</svg>
