<?xml version="1.0" encoding="utf-8"?>
<!-- Generator: Adobe Illustrator 20.1.0, SVG Export Plug-In . SVG Version: 6.00 Build 0)  -->
<!DOCTYPE svg PUBLIC "-//W3C//DTD SVG 1.1//EN" "http://www.w3.org/Graphics/SVG/1.1/DTD/svg11.dtd">
<svg version="1.1" id="Layer_1" xmlns="http://www.w3.org/2000/svg" xmlns:xlink="http://www.w3.org/1999/xlink" x="0px" y="0px"
	 viewBox="0 0 40 40" style="enable-background:new 0 0 40 40;" xml:space="preserve">
<style type="text/css">
	.st0{fill:#E6E6E6;}
	.st1{fill:#404040;}
	.st2{fill:#7F7F7F;}
</style>
<g>
	<rect x="0.5" y="0.5" class="st0" width="39" height="39"/>
	<path class="st1" d="M39,1v38H1V1H39 M40,0H0v40h40V0L40,0z"/>
</g>
<g id="mgV3hY.tif">
	<g>
		<path class="st2" d="M23.7,11.2c0.3,0,0.5,0,0.8,0.1c3.4,0.4,6.2,3,6.8,6.3c0.1,0.4,0.1,0.8,0.1,1.2c0,0.1,0,0.1,0.1,0.2
			c1.8,1.2,2.7,2.9,2.5,5c-0.2,2.4-2.2,4.4-4.6,4.7c-0.2,0-0.5,0-0.7,0c-1.3,0-2.7,0-4,0c0,0-0.1,0-0.2,0c0-0.6,0-1.2,0-1.7
			c0.1,0,0.1,0,0.2,0c1.3,0,2.7,0,4,0c1.5,0,2.6-0.7,3.2-2.1c0.9-1.9-0.2-4.2-2.3-4.8c0,0-0.1,0-0.1,0c0.3-2-0.3-3.8-1.7-5.3
			c-0.9-1-2.1-1.5-3.4-1.7c-1.5-0.2-2.9,0.1-4.2,0.9c-1.3,0.8-2.1,2-2.6,3.4c-0.1-0.1-0.3-0.2-0.4-0.3c-2.4-1.5-5.6,0-6,2.8
			c0,0.1,0,0.1-0.1,0.1c-1.6,0-3.1,1.3-3.4,3c-0.3,1.8,1,3.6,2.8,3.9c0.2,0,0.5,0.1,0.7,0.1c1.3,0,12.5,0,13.8,0c0.1,0,0.1,0,0.2,0
			c0,0.6,0,1.2,0,1.8c-0.1,0-0.1,0-0.1,0c-1.4,0-12.6,0-14,0c-2.5,0-4.7-1.9-5.1-4.3c-0.4-2.7,1.1-5.1,3.7-5.9
			c0.1,0,0.1-0.1,0.1-0.1c0.6-1.6,1.8-2.6,3.3-3.2c1.1-0.4,2.3-0.5,3.4-0.2c0.1,0,0.1,0,0.2-0.1c1.4-2.1,3.3-3.3,5.8-3.6
			c0.2,0,0.4,0,0.7-0.1C23.5,11.2,23.6,11.2,23.7,11.2z"/>
	</g>
</g>
</svg>
