<?xml version="1.0" encoding="utf-8"?>
<!-- Generator: Adobe Illustrator 20.1.0, SVG Export Plug-In . SVG Version: 6.00 Build 0)  -->
<!DOCTYPE svg PUBLIC "-//W3C//DTD SVG 1.1//EN" "http://www.w3.org/Graphics/SVG/1.1/DTD/svg11.dtd">
<svg version="1.1" id="Layer_1" xmlns="http://www.w3.org/2000/svg" xmlns:xlink="http://www.w3.org/1999/xlink" x="0px" y="0px"
	 viewBox="0 0 40 40" style="enable-background:new 0 0 40 40;" xml:space="preserve">
<style type="text/css">
	.st0{fill:#E6E6E6;}
	.st1{fill:#404040;}
	.st2{fill:#646464;}
</style>
<g>
	<rect x="0.5" y="0.5" class="st0" width="39" height="39"/>
	<path class="st1" d="M39,1v38H1V1H39 M40,0H0v40h40V0L40,0z"/>
</g>
<g>
	<path class="st2" d="M12,20.3H9.2v2.9H8.4v-6.3h0.7v2.7H12v-2.7h0.7v6.3H12V20.3z"/>
	<path class="st2" d="M14.6,16.9h4.7v1.6h-0.7v-1h-1.3v5h1v0.7h-2.7v-0.7h1v-5h-1.3v1h-0.7V16.9z"/>
	<path class="st2" d="M24.6,19l0.1-0.9h0l-0.4,0.8l-0.9,1.5h-0.2l-1-1.5l-0.4-0.8h0l0.1,0.8v4.2H21v-6.3h0.7l1.5,2.4h0l1.4-2.4h0.7
		v6.3h-0.7V19z"/>
	<path class="st2" d="M27.6,16.9h0.7v5.6h2.5v-1.6h0.7v2.2h-4V16.9z"/>
</g>
</svg>
