<?xml version="1.0" encoding="utf-8"?>
<!-- Generator: Adobe Illustrator 20.1.0, SVG Export Plug-In . SVG Version: 6.00 Build 0)  -->
<!DOCTYPE svg PUBLIC "-//W3C//DTD SVG 1.1//EN" "http://www.w3.org/Graphics/SVG/1.1/DTD/svg11.dtd">
<svg version="1.1" id="Layer_1" xmlns="http://www.w3.org/2000/svg" xmlns:xlink="http://www.w3.org/1999/xlink" x="0px" y="0px"
	 viewBox="0 0 40 40" style="enable-background:new 0 0 40 40;" xml:space="preserve">
<style type="text/css">
	.st0{fill:#E6E6E6;}
	.st1{fill:#404040;}
	.st2{fill:#646464;}
	.st3{fill:#7F7F7F;}
</style>
<g>
	<g>
		<rect x="0.5" y="0.5" class="st0" width="39" height="39"/>
		<path class="st1" d="M39,1v38H1V1H39 M40,0H0v40h40V0L40,0z"/>
	</g>
	<g>
		<g>
			<path class="st2" d="M4.1,4C4.3,4,4.4,4,4.6,4C4.8,4,5,4,5.2,4C5.3,4,5.5,4,5.7,4c0.2,0,0.3,0.1,0.4,0.2c0.1,0.1,0.2,0.2,0.3,0.4
				c0.1,0.1,0.1,0.3,0.1,0.5c0,0.2,0,0.3-0.1,0.4C6.4,5.7,6.3,5.8,6.3,5.9S6.1,6,6,6.1C5.9,6.1,5.9,6.2,5.8,6.2l1.1,2H6.3l-1-1.8
				H4.6v1.8H4.1V4z M5.2,4.4c-0.1,0-0.1,0-0.2,0c-0.1,0-0.1,0-0.2,0s-0.1,0-0.1,0s-0.1,0-0.1,0V6h0.5c0.3,0,0.5-0.1,0.7-0.2
				C5.9,5.6,6,5.4,6,5.1c0-0.2-0.1-0.4-0.2-0.5C5.6,4.5,5.4,4.4,5.2,4.4z"/>
			<path class="st2" d="M8.3,4h2.5v0.4h-2v1.4h1.8v0.4H8.8v1.5h2v0.4H8.3V4z"/>
			<path class="st2" d="M12.8,7.6c0.1,0.1,0.3,0.1,0.4,0.2c0.1,0,0.3,0.1,0.5,0.1c0.1,0,0.3,0,0.4,0c0.1,0,0.2-0.1,0.3-0.1
				c0.1-0.1,0.2-0.1,0.2-0.2c0-0.1,0.1-0.2,0.1-0.3c0-0.2-0.1-0.3-0.2-0.4c-0.1-0.1-0.2-0.2-0.4-0.3c-0.2-0.1-0.3-0.2-0.5-0.2
				C13.3,6.1,13.1,6.1,13,6c-0.2-0.1-0.3-0.2-0.4-0.4c-0.1-0.2-0.2-0.3-0.2-0.6c0-0.2,0-0.3,0.1-0.4c0.1-0.1,0.2-0.2,0.3-0.3
				C12.9,4.1,13,4.1,13.2,4c0.2,0,0.4-0.1,0.6-0.1c0.2,0,0.5,0,0.7,0.1c0.2,0,0.4,0.1,0.5,0.1l0,0v0h0l0,0v1h-0.4V4.5
				c-0.1,0-0.2,0-0.3-0.1c-0.1,0-0.2,0-0.4,0c-0.1,0-0.3,0-0.4,0c-0.1,0-0.2,0.1-0.3,0.1C13,4.6,13,4.7,13,4.7S12.9,4.9,12.9,5
				c0,0.2,0.1,0.3,0.2,0.4c0.1,0.1,0.2,0.2,0.4,0.3c0.2,0.1,0.3,0.2,0.5,0.2s0.4,0.2,0.5,0.3s0.3,0.2,0.4,0.4
				c0.1,0.1,0.2,0.3,0.2,0.6c0,0.2,0,0.3-0.1,0.5s-0.2,0.3-0.3,0.4s-0.3,0.2-0.5,0.2c-0.2,0.1-0.4,0.1-0.6,0.1c-0.2,0-0.3,0-0.4,0
				c-0.1,0-0.3-0.1-0.4-0.1c-0.1,0-0.2-0.1-0.3-0.1S12.4,8,12.4,7.9l0,0v-1h0.4V7.6z"/>
			<path class="st2" d="M16.4,6.1c0-0.7,0.1-1.2,0.4-1.6s0.6-0.6,1.1-0.6c0.3,0,0.5,0.1,0.7,0.2c0.2,0.1,0.4,0.3,0.5,0.4
				c0.1,0.2,0.2,0.4,0.3,0.7c0.1,0.3,0.1,0.6,0.1,0.9c0,0.7-0.1,1.2-0.4,1.6c-0.2,0.4-0.6,0.6-1.1,0.6c-0.3,0-0.5-0.1-0.7-0.2
				C17,8,16.8,7.9,16.7,7.7c-0.1-0.2-0.2-0.4-0.3-0.7C16.4,6.7,16.4,6.4,16.4,6.1z M16.9,6.1c0,0.2,0,0.5,0,0.7
				C17,7,17,7.2,17.1,7.3c0.1,0.2,0.2,0.3,0.3,0.4c0.1,0.1,0.3,0.1,0.5,0.1c0.3,0,0.6-0.1,0.8-0.4c0.2-0.3,0.2-0.7,0.2-1.3
				c0-0.2,0-0.4,0-0.7S18.8,5,18.7,4.9c-0.1-0.2-0.2-0.3-0.3-0.4c-0.1-0.1-0.3-0.1-0.5-0.1c-0.3,0-0.6,0.1-0.7,0.4
				C17,5.1,16.9,5.5,16.9,6.1z"/>
			<path class="st2" d="M23.1,4h0.5v2.8c0,0.3,0,0.5-0.1,0.7c-0.1,0.2-0.2,0.3-0.3,0.5s-0.3,0.2-0.4,0.3c-0.2,0.1-0.4,0.1-0.6,0.1
				c-0.5,0-0.9-0.1-1.1-0.3c-0.2-0.2-0.4-0.6-0.4-1V4h0.5v2.7c0,0.2,0,0.4,0.1,0.5c0,0.1,0.1,0.3,0.2,0.4c0.1,0.1,0.2,0.2,0.3,0.2
				s0.3,0.1,0.4,0.1c0.3,0,0.6-0.1,0.7-0.3c0.1-0.2,0.2-0.5,0.2-0.9V4z"/>
			<path class="st2" d="M25.1,4c0.2,0,0.3,0,0.5-0.1c0.2,0,0.4,0,0.5,0c0.2,0,0.4,0,0.5,0.1c0.2,0,0.3,0.1,0.4,0.2
				c0.1,0.1,0.2,0.2,0.3,0.4c0.1,0.1,0.1,0.3,0.1,0.5c0,0.2,0,0.3-0.1,0.4s-0.1,0.2-0.2,0.3C27.2,6,27.1,6,27,6.1
				c-0.1,0.1-0.2,0.1-0.2,0.1l1.1,2h-0.6l-1-1.8h-0.7v1.8h-0.5V4z M26.2,4.4c-0.1,0-0.1,0-0.2,0s-0.1,0-0.2,0s-0.1,0-0.1,0
				c0,0-0.1,0-0.1,0V6h0.5c0.3,0,0.5-0.1,0.7-0.2C26.9,5.6,27,5.4,27,5.1c0-0.2-0.1-0.4-0.2-0.5C26.7,4.5,26.4,4.4,26.2,4.4z"/>
			<path class="st2" d="M31.4,4.5c-0.1,0-0.1,0-0.2-0.1c-0.1,0-0.2,0-0.3,0c-0.2,0-0.3,0-0.5,0.1c-0.2,0.1-0.3,0.2-0.4,0.3
				c-0.1,0.1-0.2,0.3-0.3,0.5s-0.1,0.5-0.1,0.8c0,0.3,0,0.5,0.1,0.8c0.1,0.2,0.2,0.4,0.3,0.5c0.1,0.1,0.3,0.3,0.4,0.3
				c0.2,0.1,0.4,0.1,0.6,0.1c0.1,0,0.2,0,0.3,0c0.1,0,0.2,0,0.2-0.1V7.1H32v0.8l0,0c-0.1,0.1-0.3,0.2-0.5,0.2
				c-0.2,0.1-0.4,0.1-0.7,0.1c-0.3,0-0.5,0-0.7-0.1s-0.4-0.2-0.6-0.4c-0.2-0.2-0.3-0.4-0.4-0.7s-0.1-0.6-0.1-1c0-0.4,0-0.7,0.1-1
				c0.1-0.3,0.2-0.5,0.4-0.7C29.8,4.3,30,4.1,30.2,4c0.2-0.1,0.5-0.1,0.7-0.1c0.1,0,0.3,0,0.4,0c0.1,0,0.2,0,0.3,0
				c0.1,0,0.1,0,0.2,0.1c0.1,0,0.1,0.1,0.2,0.1h0v0.9h-0.4V4.5z"/>
			<path class="st2" d="M33.5,4H36v0.4h-2v1.4h1.8v0.4H34v1.5h2v0.4h-2.5V4z"/>
		</g>
		<g>
			<rect x="4" y="12" class="st3" width="8" height="10"/>
			<rect x="28" y="12" class="st3" width="8" height="10"/>
			<rect x="16" y="12" class="st3" width="8" height="10"/>
		</g>
		<g>
			<rect x="4" y="26" class="st3" width="8" height="10"/>
			<rect x="28" y="26" class="st3" width="8" height="10"/>
			<rect x="16" y="26" class="st3" width="8" height="10"/>
		</g>
	</g>
</g>
</svg>
