<?xml version="1.0" encoding="utf-8"?>
<!-- Generator: Adobe Illustrator 20.1.0, SVG Export Plug-In . SVG Version: 6.00 Build 0)  -->
<!DOCTYPE svg PUBLIC "-//W3C//DTD SVG 1.1//EN" "http://www.w3.org/Graphics/SVG/1.1/DTD/svg11.dtd">
<svg version="1.1" id="Layer_1" xmlns="http://www.w3.org/2000/svg" xmlns:xlink="http://www.w3.org/1999/xlink" x="0px" y="0px"
	 viewBox="0 0 40 40" style="enable-background:new 0 0 40 40;" xml:space="preserve">
<style type="text/css">
	.st0{fill:#E6E6E6;}
	.st1{fill:#404040;}
	.st2{fill:#7F7F7F;}
</style>
<g>
	<rect x="0.5" y="0.5" class="st0" width="39" height="39"/>
	<path class="st1" d="M39,1v38H1V1H39 M40,0H0v40h40V0L40,0z"/>
</g>
<g>
	<path class="st2" d="M10.3,21.5c0,0.6-0.2,1.1-0.6,1.4c-0.4,0.4-0.9,0.5-1.5,0.5c-0.8,0-1.4-0.2-1.9-0.7s-0.7-1.2-0.7-2.1
		c0-0.9,0.1-1.7,0.4-2.3c0.3-0.7,0.6-1.2,0.9-1.7c0.4-0.4,0.8-0.8,1.2-1.1c0.4-0.3,0.8-0.4,1.1-0.6l1,1.4c-0.6,0.3-1.2,0.7-1.6,1.2
		c-0.5,0.5-0.7,1.1-0.7,1.9c0.1,0,0.2,0,0.4,0c0.5,0,1,0.2,1.4,0.6C10,20.4,10.3,20.9,10.3,21.5z M17,21.5c0,0.6-0.2,1.1-0.6,1.4
		c-0.4,0.4-0.9,0.5-1.5,0.5c-0.8,0-1.4-0.2-1.9-0.7s-0.7-1.2-0.7-2.1c0-0.9,0.1-1.7,0.4-2.3c0.3-0.7,0.6-1.2,0.9-1.7
		c0.4-0.4,0.8-0.8,1.2-1.1c0.4-0.3,0.8-0.4,1.1-0.6l1,1.4c-0.6,0.3-1.2,0.7-1.6,1.2c-0.5,0.5-0.7,1.1-0.7,1.9c0.1,0,0.2,0,0.4,0
		c0.5,0,1,0.2,1.4,0.6C16.8,20.4,17,20.9,17,21.5z"/>
	<path class="st2" d="M23,18.5c0-0.6,0.2-1.1,0.6-1.5c0.4-0.4,0.9-0.5,1.5-0.5c0.8,0,1.4,0.2,1.9,0.7s0.7,1.2,0.7,2.1
		c0,0.9-0.1,1.7-0.4,2.3c-0.3,0.7-0.6,1.2-0.9,1.7s-0.8,0.8-1.2,1.1c-0.4,0.3-0.8,0.4-1.1,0.6l-1-1.4c0.6-0.3,1.2-0.7,1.6-1.2
		c0.5-0.5,0.7-1.1,0.7-1.9c-0.1,0-0.2,0-0.4,0c-0.5,0-1-0.2-1.4-0.6C23.2,19.5,23,19.1,23,18.5z M29.7,18.5c0-0.6,0.2-1.1,0.6-1.5
		c0.4-0.4,0.9-0.5,1.5-0.5c0.8,0,1.4,0.2,1.9,0.7c0.5,0.5,0.7,1.2,0.7,2.1c0,0.9-0.1,1.7-0.4,2.3c-0.3,0.7-0.6,1.2-0.9,1.7
		c-0.4,0.5-0.8,0.8-1.2,1.1c-0.4,0.3-0.8,0.4-1.1,0.6l-1-1.4c0.6-0.3,1.2-0.7,1.6-1.2c0.5-0.5,0.7-1.1,0.7-1.9c-0.1,0-0.2,0-0.4,0
		c-0.5,0-1-0.2-1.4-0.6C30,19.5,29.7,19.1,29.7,18.5z"/>
</g>
</svg>
